<?xml version="1.0" encoding="UTF-8" standalone="no"?>
<!-- Created with Inkscape (http://www.inkscape.org/) -->

<svg
   xmlns:dc="http://purl.org/dc/elements/1.1/"
   xmlns:cc="http://creativecommons.org/ns#"
   xmlns:rdf="http://www.w3.org/1999/02/22-rdf-syntax-ns#"
   xmlns:svg="http://www.w3.org/2000/svg"
   xmlns="http://www.w3.org/2000/svg"
   xmlns:sodipodi="http://sodipodi.sourceforge.net/DTD/sodipodi-0.dtd"
   xmlns:inkscape="http://www.inkscape.org/namespaces/inkscape"
   version="1.1"
   id="svg1381"
   width="600"
   height="400"
   viewBox="0 0 600 400"
   sodipodi:docname="logo.svg"
   inkscape:version="0.92.4 (5da689c313, 2019-01-14)">
  <metadata
     id="metadata1387">
    <rdf:RDF>
      <cc:Work
         rdf:about="">
        <dc:format>image/svg+xml</dc:format>
        <dc:type
           rdf:resource="http://purl.org/dc/dcmitype/StillImage" />
        <dc:title></dc:title>
      </cc:Work>
    </rdf:RDF>
  </metadata>
  <defs
     id="defs1385" />
  <sodipodi:namedview
     pagecolor="#ffffff"
     bordercolor="#666666"
     borderopacity="1"
     objecttolerance="10"
     gridtolerance="10"
     guidetolerance="10"
     inkscape:pageopacity="0"
     inkscape:pageshadow="2"
     inkscape:window-width="2133"
     inkscape:window-height="1121"
     id="namedview1383"
     showgrid="false"
     inkscape:zoom="1.0426649"
     inkscape:cx="251.99977"
     inkscape:cy="215.48842"
     inkscape:window-x="-9"
     inkscape:window-y="-9"
     inkscape:window-maximized="1"
     inkscape:current-layer="svg1381" />
  <path
     id="path7113"
     d="m 150.67474,257.27369 c -2.43253,11.35661 -10.3383,17.73953 -20.94266,19.8948 -9.31208,1.86515 -17.06583,2.32107 -24.51548,-4.22764 -9.084021,-8.33096 -9.198051,-22.13296 -1.02623,-30.83695 6.46143,-6.71451 15.54548,-8.08228 29.19053,-10.69347 2.28048,-0.45594 4.25694,-1.03619 5.92931,-3.06711 2.43257,-2.98421 1.67239,-1.69934 1.67239,-67.64236 0,-4.64212 -2.09048,-5.92699 -6.46145,-5.09804 -3.11671,0.58028 -70.581781,14.34083 -70.581781,14.34083 -3.87685,0.91186 -5.09313,2.15529 -5.09313,6.92176 0,97.27732 0.4181,92.80098 -0.95021,99.26682 -1.59636,7.54344 -5.853314,13.22175 -11.478567,16.37176 -6.385431,3.8546 -17.940013,5.55395 -24.09739,4.31053 -16.4196638,-3.35724 -22.19696281,-24.03955 -11.060474,-35.89354 6.461438,-6.71452 15.545483,-8.08228 29.190527,-10.69347 2.280507,-0.45592 4.256953,-1.03618 5.929326,-3.06711 3.83886,-4.76647 0.684156,-106.35433 1.976446,-111.99121 0.304073,-2.15526 1.14026,-3.97895 2.698601,-5.34672 1.596363,-1.45066 4.484994,-2.27962 5.093152,-2.27962 77.5373,-15.83295 87.00142,-17.86387 88.33171,-17.86387 4.37098,-0.3316 6.87955,2.48684 6.87955,7.29476 0.0759,142.78671 0.41808,135.11892 -0.68417,140.29985 z"
     inkscape:connector-curvature="0"
     style="fill:currentColor;stroke-width:0.99999982"
     inkscape:export-xdpi="239"
     inkscape:export-ydpi="239" />
  <g
     aria-label="- tinder"
     transform="matrix(3.1622808,0,0,3.3243068,-422.55419,-490.1018)"
     style="font-style:normal;font-variant:normal;font-weight:normal;font-stretch:normal;font-size:40px;line-height:1.25;font-family:'Viner Hand ITC';-inkscape-font-specification:'Viner Hand ITC';letter-spacing:0px;word-spacing:0px;fill:#000000;fill-opacity:1;stroke:none;stroke-width:0.30842477"
     id="flowRoot7124">
    <path
       d="m 189.05352,206.15472 v 4.92 h 10.84 v -4.92 z"
       style="font-style:normal;font-variant:normal;font-stretch:normal;font-size:40px;font-family:Chalet;-inkscape-font-specification:'Chalet,  weight=551';font-variant-ligatures:normal;font-variant-caps:normal;font-variant-numeric:normal;font-feature-settings:normal;text-align:start;writing-mode:lr-tb;text-anchor:start;stroke-width:0.13722026"
       id="path7132"
       inkscape:connector-curvature="0" />
    <path
       d="m 224.76039,219.67472 v -4.8 c -1.36,0.08 -2.36,-0.16 -3,-0.76 -0.64,-0.56 -0.96,-1.6 -0.96,-3.04 v -7.28 h 3.72 v -4.68 h -3.72 v -5.24 h -5.28 v 17.16 c 0,1.44 0.2,2.72 0.6,3.84 0.4,1.12 0.96,2.08 1.76,2.84 0.76,0.8 1.72,1.36 2.88,1.68 1.12,0.36 2.48,0.44 4,0.28 z"
       style="font-style:normal;font-variant:normal;font-stretch:normal;font-size:40px;font-family:Chalet;-inkscape-font-specification:'Chalet,  weight=551';font-variant-ligatures:normal;font-variant-caps:normal;font-variant-numeric:normal;font-feature-settings:normal;text-align:start;writing-mode:lr-tb;text-anchor:start;stroke-width:0.13722026"
       id="path7134"
       inkscape:connector-curvature="0" />
    <path
       d="m 233.97477,219.71472 v -20.6 h -5.28 v 20.6 z m -5.32,-22.84 h 5.32 v -2.96 c 0,-0.72 -0.28,-1.36 -0.8,-1.88 -0.52,-0.48 -1.12,-0.76 -1.84,-0.76 -0.76,0 -1.4,0.28 -1.92,0.76 -0.52,0.52 -0.76,1.16 -0.76,1.88 z"
       style="font-style:normal;font-variant:normal;font-stretch:normal;font-size:40px;font-family:Chalet;-inkscape-font-specification:'Chalet,  weight=551';font-variant-ligatures:normal;font-variant-caps:normal;font-variant-numeric:normal;font-feature-settings:normal;text-align:start;writing-mode:lr-tb;text-anchor:start;stroke-width:0.13722026"
       id="path7136"
       inkscape:connector-curvature="0" />
    <path
       d="m 238.76539,207.79472 v 11.92 h 5.28 v -12.04 c 0,-1.16 0.36,-2.12 1.12,-2.84 0.72,-0.72 1.68,-1.08 2.88,-1.08 0.88,0 1.56,0.16 2.08,0.44 0.48,0.32 0.88,0.68 1.16,1.08 0.24,0.44 0.44,0.88 0.52,1.32 0.08,0.44 0.12,0.8 0.12,1.08 v 12.04 h 5.28 v -11.92 c 0,-1.36 -0.24,-2.6 -0.64,-3.72 -0.4,-1.12 -1,-2.08 -1.8,-2.88 -0.8,-0.8 -1.76,-1.44 -2.88,-1.92 -1.12,-0.44 -2.4,-0.68 -3.84,-0.68 -1.44,0 -2.72,0.24 -3.84,0.72 -1.12,0.48 -2.12,1.12 -2.92,1.92 -0.8,0.84 -1.44,1.8 -1.88,2.92 -0.44,1.12 -0.64,2.36 -0.64,3.64 z"
       style="font-style:normal;font-variant:normal;font-stretch:normal;font-size:40px;font-family:Chalet;-inkscape-font-specification:'Chalet,  weight=551';font-variant-ligatures:normal;font-variant-caps:normal;font-variant-numeric:normal;font-feature-settings:normal;text-align:start;writing-mode:lr-tb;text-anchor:start;stroke-width:0.13722026"
       id="path7138"
       inkscape:connector-curvature="0" />
    <path
       d="m 276.49602,209.47472 c 0,0.8 -0.16,1.56 -0.44,2.28 -0.28,0.72 -0.64,1.32 -1.12,1.84 -0.48,0.52 -1.04,0.92 -1.68,1.24 -0.64,0.32 -1.32,0.44 -2.04,0.44 -0.72,0 -1.4,-0.12 -2.04,-0.44 -0.64,-0.28 -1.2,-0.68 -1.68,-1.2 -0.48,-0.52 -0.88,-1.12 -1.16,-1.84 -0.28,-0.72 -0.4,-1.48 -0.4,-2.32 0,-0.84 0.12,-1.64 0.4,-2.36 0.28,-0.72 0.68,-1.32 1.16,-1.88 0.48,-0.52 1.04,-0.92 1.68,-1.24 0.64,-0.28 1.32,-0.44 2.04,-0.44 0.72,0 1.4,0.16 2.04,0.48 0.64,0.32 1.2,0.72 1.68,1.24 0.48,0.56 0.84,1.16 1.12,1.88 0.28,0.72 0.44,1.52 0.44,2.32 z m 5.28,-0.04 v -19.48 h -5.28 v 11.12 c -1.6,-1.6 -3.6,-2.4 -6.04,-2.4 -1.36,0 -2.64,0.28 -3.84,0.84 -1.2,0.56 -2.24,1.36 -3.12,2.32 -0.88,1 -1.6,2.16 -2.12,3.44 -0.52,1.32 -0.76,2.72 -0.76,4.16 0,1.52 0.24,2.92 0.76,4.2 0.52,1.32 1.24,2.48 2.2,3.44 0.92,0.96 2.04,1.72 3.32,2.28 1.28,0.56 2.72,0.84 4.32,0.84 1.52,0 2.96,-0.28 4.24,-0.84 1.28,-0.56 2.4,-1.32 3.36,-2.28 0.92,-0.96 1.64,-2.12 2.16,-3.44 0.52,-1.28 0.8,-2.68 0.8,-4.2 z"
       style="font-style:normal;font-variant:normal;font-stretch:normal;font-size:40px;font-family:Chalet;-inkscape-font-specification:'Chalet,  weight=551';font-variant-ligatures:normal;font-variant-caps:normal;font-variant-numeric:normal;font-feature-settings:normal;text-align:start;writing-mode:lr-tb;text-anchor:start;stroke-width:0.13722026"
       id="path7140"
       inkscape:connector-curvature="0" />
    <path
       d="m 299.43477,205.07472 -9.68,4.08 c 0,-0.88 0.16,-1.68 0.48,-2.4 0.32,-0.72 0.72,-1.32 1.2,-1.84 0.48,-0.52 1.08,-0.92 1.76,-1.24 0.64,-0.28 1.36,-0.44 2.16,-0.44 0.84,0 1.6,0.16 2.32,0.48 0.68,0.32 1.28,0.8 1.76,1.36 z m 5.92,8.08 h -5.64 c -0.48,0.84 -1.08,1.44 -1.88,1.84 -0.8,0.4 -1.64,0.56 -2.48,0.56 -0.92,0 -1.76,-0.16 -2.48,-0.56 -0.76,-0.4 -1.4,-0.92 -1.92,-1.64 l 14.56,-6.12 c -0.24,-1.36 -0.68,-2.6 -1.32,-3.68 -0.64,-1.04 -1.4,-1.96 -2.28,-2.68 -0.88,-0.72 -1.88,-1.28 -3,-1.68 -1.12,-0.4 -2.32,-0.6 -3.52,-0.6 -1.48,0 -2.84,0.32 -4.12,0.88 -1.28,0.56 -2.4,1.36 -3.36,2.32 -0.96,0.96 -1.72,2.12 -2.28,3.44 -0.56,1.32 -0.8,2.72 -0.8,4.2 0,1.52 0.24,2.92 0.8,4.2 0.56,1.32 1.32,2.48 2.28,3.44 0.96,0.96 2.08,1.72 3.36,2.28 1.28,0.56 2.64,0.84 4.12,0.84 2.56,0 4.72,-0.64 6.44,-1.92 1.72,-1.28 2.88,-3 3.52,-5.12 z"
       style="font-style:normal;font-variant:normal;font-stretch:normal;font-size:40px;font-family:Chalet;-inkscape-font-specification:'Chalet,  weight=551';font-variant-ligatures:normal;font-variant-caps:normal;font-variant-numeric:normal;font-feature-settings:normal;text-align:start;writing-mode:lr-tb;text-anchor:start;stroke-width:0.13722026"
       id="path7142"
       inkscape:connector-curvature="0" />
    <path
       d="m 319.87977,203.67472 v -4.96 c -1.72,-0.2 -3.24,-0.12 -4.6,0.24 -1.36,0.4 -2.48,1 -3.4,1.8 -0.96,0.84 -1.68,1.84 -2.16,3.04 -0.48,1.2 -0.72,2.56 -0.72,4 v 11.92 h 5.28 v -11.92 c 0,-1.44 0.48,-2.56 1.52,-3.36 1.04,-0.8 2.4,-1.04 4.08,-0.76 z"
       style="font-style:normal;font-variant:normal;font-stretch:normal;font-size:40px;font-family:Chalet;-inkscape-font-specification:'Chalet,  weight=551';font-variant-ligatures:normal;font-variant-caps:normal;font-variant-numeric:normal;font-feature-settings:normal;text-align:start;writing-mode:lr-tb;text-anchor:start;stroke-width:0.13722026"
       id="path7144"
       inkscape:connector-curvature="0" />
  </g>
</svg>
