<?xml version="1.0" encoding="UTF-8" standalone="no"?>
<!-- Created with Inkscape (http://www.inkscape.org/) -->

<svg
   xmlns:dc="http://purl.org/dc/elements/1.1/"
   xmlns:cc="http://creativecommons.org/ns#"
   xmlns:rdf="http://www.w3.org/1999/02/22-rdf-syntax-ns#"
   xmlns:svg="http://www.w3.org/2000/svg"
   xmlns="http://www.w3.org/2000/svg"
   xmlns:sodipodi="http://sodipodi.sourceforge.net/DTD/sodipodi-0.dtd"
   xmlns:inkscape="http://www.inkscape.org/namespaces/inkscape"
   version="1.1"
   id="svg1381"
   width="600"
   height="400"
   viewBox="0 0 600 400"
   sodipodi:docname="logo.svg"
   inkscape:version="0.92.4 (5da689c313, 2019-01-14)">
  <metadata
     id="metadata1387">
    <rdf:RDF>
      <cc:Work
         rdf:about="">
        <dc:format>image/svg+xml</dc:format>
        <dc:type
           rdf:resource="http://purl.org/dc/dcmitype/StillImage" />
        <dc:title></dc:title>
      </cc:Work>
    </rdf:RDF>
  </metadata>
  <defs
     id="defs1385" />
  <sodipodi:namedview
     pagecolor="#ffffff"
     bordercolor="#666666"
     borderopacity="1"
     objecttolerance="10"
     gridtolerance="10"
     guidetolerance="10"
     inkscape:pageopacity="0"
     inkscape:pageshadow="2"
     inkscape:window-width="2133"
     inkscape:window-height="1121"
     id="namedview1383"
     showgrid="false"
     inkscape:zoom="1.0426649"
     inkscape:cx="251.99977"
     inkscape:cy="215.48842"
     inkscape:window-x="-9"
     inkscape:window-y="-9"
     inkscape:window-maximized="1"
     inkscape:current-layer="svg1381" />
  <path
     id="path7113"
     d="m 147.81315,254.21006 c -2.38458,12.22767 -10.1345,19.10016 -20.52982,21.42074 -9.12851,2.00821 -16.7294,2.4991 -24.0322,-4.5519 -8.904946,-8.96995 -9.016728,-23.83057 -1.006,-33.20216 6.33406,-7.22951 15.23903,-8.70219 28.61509,-11.51366 2.23553,-0.49091 4.17303,-1.11567 5.81243,-3.30236 2.38462,-3.2131 1.63942,-1.82968 1.63942,-72.83056 0,-4.99817 -2.04927,-6.38159 -6.33407,-5.48906 -3.05527,0.62479 -69.190397,15.44078 -69.190397,15.44078 -3.800425,0.9818 -4.992729,2.3206 -4.992729,7.45266 0,104.73853 0.409858,99.91885 -0.931478,106.88063 -1.564891,8.12202 -5.737927,14.23586 -11.252289,17.62748 -6.259554,4.15025 -17.586359,5.97994 -23.622355,4.64115 -16.0959809,-3.61475 -21.75939128,-25.8834 -10.842437,-38.64659 6.334062,-7.22953 15.239033,-8.7022 28.61509,-11.51367 2.235551,-0.49089 4.173035,-1.11565 5.812441,-3.30235 3.763184,-5.13206 0.670669,-114.51175 1.937484,-120.58099 0.298079,-2.32056 1.117782,-4.28413 2.645403,-5.75681 1.564894,-1.56193 4.396581,-2.45447 4.99275,-2.45447 76.008797,-17.047342 85.286347,-19.234035 86.590417,-19.234035 4.28481,-0.357034 6.74393,2.677582 6.74393,7.854275 0.0744,153.7385 0.40984,145.48259 -0.67068,151.0609 z"
     inkscape:connector-curvature="0"
     style="fill:#ffffff;fill-opacity:1;stroke:none;stroke-width:0.99999982;stroke-opacity:1"
     inkscape:export-xdpi="239"
     inkscape:export-ydpi="239" />
  <g
     aria-label="- tinder"
     transform="matrix(3.0303237,0,0,3.3243068,-386.09825,-514.07882)"
     style="font-style:normal;font-variant:normal;font-weight:normal;font-stretch:normal;font-size:40px;line-height:1.25;font-family:'Viner Hand ITC';-inkscape-font-specification:'Viner Hand ITC';letter-spacing:0px;word-spacing:0px;fill:#ffffff;fill-opacity:1;stroke:none;stroke-width:0.31506848;stroke-opacity:1"
     id="flowRoot7124">
    <path
       d="m 189.05352,206.15472 v 4.92 h 10.84 v -4.92 z"
       style="font-style:normal;font-variant:normal;font-stretch:normal;font-size:40px;font-family:Chalet;-inkscape-font-specification:'Chalet, weight=551';font-variant-ligatures:normal;font-variant-caps:normal;font-variant-numeric:normal;font-feature-settings:normal;text-align:start;writing-mode:lr-tb;text-anchor:start;fill:#ffffff;fill-opacity:1;stroke:none;stroke-width:0.14017609;stroke-opacity:1"
       id="path7132"
       inkscape:connector-curvature="0" />
    <path
       d="m 224.76039,219.67472 v -4.8 c -1.36,0.08 -2.36,-0.16 -3,-0.76 -0.64,-0.56 -0.96,-1.6 -0.96,-3.04 v -7.28 h 3.72 v -4.68 h -3.72 v -5.24 h -5.28 v 17.16 c 0,1.44 0.2,2.72 0.6,3.84 0.4,1.12 0.96,2.08 1.76,2.84 0.76,0.8 1.72,1.36 2.88,1.68 1.12,0.36 2.48,0.44 4,0.28 z"
       style="font-style:normal;font-variant:normal;font-stretch:normal;font-size:40px;font-family:Chalet;-inkscape-font-specification:'Chalet, weight=551';font-variant-ligatures:normal;font-variant-caps:normal;font-variant-numeric:normal;font-feature-settings:normal;text-align:start;writing-mode:lr-tb;text-anchor:start;fill:#ffffff;fill-opacity:1;stroke:none;stroke-width:0.14017609;stroke-opacity:1"
       id="path7134"
       inkscape:connector-curvature="0" />
    <path
       d="m 233.97477,219.71472 v -20.6 h -5.28 v 20.6 z m -5.32,-22.84 h 5.32 v -2.96 c 0,-0.72 -0.28,-1.36 -0.8,-1.88 -0.52,-0.48 -1.12,-0.76 -1.84,-0.76 -0.76,0 -1.4,0.28 -1.92,0.76 -0.52,0.52 -0.76,1.16 -0.76,1.88 z"
       style="font-style:normal;font-variant:normal;font-stretch:normal;font-size:40px;font-family:Chalet;-inkscape-font-specification:'Chalet, weight=551';font-variant-ligatures:normal;font-variant-caps:normal;font-variant-numeric:normal;font-feature-settings:normal;text-align:start;writing-mode:lr-tb;text-anchor:start;fill:#ffffff;fill-opacity:1;stroke:none;stroke-width:0.14017609;stroke-opacity:1"
       id="path7136"
       inkscape:connector-curvature="0" />
    <path
       d="m 238.76539,207.79472 v 11.92 h 5.28 v -12.04 c 0,-1.16 0.36,-2.12 1.12,-2.84 0.72,-0.72 1.68,-1.08 2.88,-1.08 0.88,0 1.56,0.16 2.08,0.44 0.48,0.32 0.88,0.68 1.16,1.08 0.24,0.44 0.44,0.88 0.52,1.32 0.08,0.44 0.12,0.8 0.12,1.08 v 12.04 h 5.28 v -11.92 c 0,-1.36 -0.24,-2.6 -0.64,-3.72 -0.4,-1.12 -1,-2.08 -1.8,-2.88 -0.8,-0.8 -1.76,-1.44 -2.88,-1.92 -1.12,-0.44 -2.4,-0.68 -3.84,-0.68 -1.44,0 -2.72,0.24 -3.84,0.72 -1.12,0.48 -2.12,1.12 -2.92,1.92 -0.8,0.84 -1.44,1.8 -1.88,2.92 -0.44,1.12 -0.64,2.36 -0.64,3.64 z"
       style="font-style:normal;font-variant:normal;font-stretch:normal;font-size:40px;font-family:Chalet;-inkscape-font-specification:'Chalet, weight=551';font-variant-ligatures:normal;font-variant-caps:normal;font-variant-numeric:normal;font-feature-settings:normal;text-align:start;writing-mode:lr-tb;text-anchor:start;fill:#ffffff;fill-opacity:1;stroke:none;stroke-width:0.14017609;stroke-opacity:1"
       id="path7138"
       inkscape:connector-curvature="0" />
    <path
       d="m 276.49602,209.47472 c 0,0.8 -0.16,1.56 -0.44,2.28 -0.28,0.72 -0.64,1.32 -1.12,1.84 -0.48,0.52 -1.04,0.92 -1.68,1.24 -0.64,0.32 -1.32,0.44 -2.04,0.44 -0.72,0 -1.4,-0.12 -2.04,-0.44 -0.64,-0.28 -1.2,-0.68 -1.68,-1.2 -0.48,-0.52 -0.88,-1.12 -1.16,-1.84 -0.28,-0.72 -0.4,-1.48 -0.4,-2.32 0,-0.84 0.12,-1.64 0.4,-2.36 0.28,-0.72 0.68,-1.32 1.16,-1.88 0.48,-0.52 1.04,-0.92 1.68,-1.24 0.64,-0.28 1.32,-0.44 2.04,-0.44 0.72,0 1.4,0.16 2.04,0.48 0.64,0.32 1.2,0.72 1.68,1.24 0.48,0.56 0.84,1.16 1.12,1.88 0.28,0.72 0.44,1.52 0.44,2.32 z m 5.28,-0.04 v -19.48 h -5.28 v 11.12 c -1.6,-1.6 -3.6,-2.4 -6.04,-2.4 -1.36,0 -2.64,0.28 -3.84,0.84 -1.2,0.56 -2.24,1.36 -3.12,2.32 -0.88,1 -1.6,2.16 -2.12,3.44 -0.52,1.32 -0.76,2.72 -0.76,4.16 0,1.52 0.24,2.92 0.76,4.2 0.52,1.32 1.24,2.48 2.2,3.44 0.92,0.96 2.04,1.72 3.32,2.28 1.28,0.56 2.72,0.84 4.32,0.84 1.52,0 2.96,-0.28 4.24,-0.84 1.28,-0.56 2.4,-1.32 3.36,-2.28 0.92,-0.96 1.64,-2.12 2.16,-3.44 0.52,-1.28 0.8,-2.68 0.8,-4.2 z"
       style="font-style:normal;font-variant:normal;font-stretch:normal;font-size:40px;font-family:Chalet;-inkscape-font-specification:'Chalet, weight=551';font-variant-ligatures:normal;font-variant-caps:normal;font-variant-numeric:normal;font-feature-settings:normal;text-align:start;writing-mode:lr-tb;text-anchor:start;fill:#ffffff;fill-opacity:1;stroke:none;stroke-width:0.14017609;stroke-opacity:1"
       id="path7140"
       inkscape:connector-curvature="0" />
    <path
       d="m 299.43477,205.07472 -9.68,4.08 c 0,-0.88 0.16,-1.68 0.48,-2.4 0.32,-0.72 0.72,-1.32 1.2,-1.84 0.48,-0.52 1.08,-0.92 1.76,-1.24 0.64,-0.28 1.36,-0.44 2.16,-0.44 0.84,0 1.6,0.16 2.32,0.48 0.68,0.32 1.28,0.8 1.76,1.36 z m 5.92,8.08 h -5.64 c -0.48,0.84 -1.08,1.44 -1.88,1.84 -0.8,0.4 -1.64,0.56 -2.48,0.56 -0.92,0 -1.76,-0.16 -2.48,-0.56 -0.76,-0.4 -1.4,-0.92 -1.92,-1.64 l 14.56,-6.12 c -0.24,-1.36 -0.68,-2.6 -1.32,-3.68 -0.64,-1.04 -1.4,-1.96 -2.28,-2.68 -0.88,-0.72 -1.88,-1.28 -3,-1.68 -1.12,-0.4 -2.32,-0.6 -3.52,-0.6 -1.48,0 -2.84,0.32 -4.12,0.88 -1.28,0.56 -2.4,1.36 -3.36,2.32 -0.96,0.96 -1.72,2.12 -2.28,3.44 -0.56,1.32 -0.8,2.72 -0.8,4.2 0,1.52 0.24,2.92 0.8,4.2 0.56,1.32 1.32,2.48 2.28,3.44 0.96,0.96 2.08,1.72 3.36,2.28 1.28,0.56 2.64,0.84 4.12,0.84 2.56,0 4.72,-0.64 6.44,-1.92 1.72,-1.28 2.88,-3 3.52,-5.12 z"
       style="font-style:normal;font-variant:normal;font-stretch:normal;font-size:40px;font-family:Chalet;-inkscape-font-specification:'Chalet, weight=551';font-variant-ligatures:normal;font-variant-caps:normal;font-variant-numeric:normal;font-feature-settings:normal;text-align:start;writing-mode:lr-tb;text-anchor:start;fill:#ffffff;fill-opacity:1;stroke:none;stroke-width:0.14017609;stroke-opacity:1"
       id="path7142"
       inkscape:connector-curvature="0" />
    <path
       d="m 319.87977,203.67472 v -4.96 c -1.72,-0.2 -3.24,-0.12 -4.6,0.24 -1.36,0.4 -2.48,1 -3.4,1.8 -0.96,0.84 -1.68,1.84 -2.16,3.04 -0.48,1.2 -0.72,2.56 -0.72,4 v 11.92 h 5.28 v -11.92 c 0,-1.44 0.48,-2.56 1.52,-3.36 1.04,-0.8 2.4,-1.04 4.08,-0.76 z"
       style="font-style:normal;font-variant:normal;font-stretch:normal;font-size:40px;font-family:Chalet;-inkscape-font-specification:'Chalet, weight=551';font-variant-ligatures:normal;font-variant-caps:normal;font-variant-numeric:normal;font-feature-settings:normal;text-align:start;writing-mode:lr-tb;text-anchor:start;fill:#ffffff;fill-opacity:1;stroke:none;stroke-width:0.14017609;stroke-opacity:1"
       id="path7144"
       inkscape:connector-curvature="0" />
  </g>
  <g
     style="font-style:normal;font-variant:normal;font-weight:normal;font-stretch:normal;font-size:40px;line-height:1.25;font-family:'Viner Hand ITC';-inkscape-font-specification:'Viner Hand ITC';letter-spacing:0px;word-spacing:0px;fill:#000000;fill-opacity:1;stroke:none"
     id="flowRoot7171" />
  <g
     style="font-style:normal;font-variant:normal;font-weight:normal;font-stretch:normal;font-size:40px;line-height:1.25;font-family:'Viner Hand ITC';-inkscape-font-specification:'Viner Hand ITC';letter-spacing:0px;word-spacing:0px;fill:#000000;fill-opacity:1;stroke:none"
     id="flowRoot7179" />
  <g
     style="font-style:normal;font-variant:normal;font-weight:normal;font-stretch:normal;font-size:40px;line-height:1.25;font-family:'Viner Hand ITC';-inkscape-font-specification:'Viner Hand ITC';letter-spacing:0px;word-spacing:0px;fill:#000000;fill-opacity:1;stroke:none"
     id="flowRoot7187" />
  <g
     aria-label="Sex on the Beat"
     transform="matrix(1.3706721,0,0,1.4123034,-115.02292,-139.0352)"
     style="font-style:normal;font-variant:normal;font-weight:normal;font-stretch:normal;font-size:40px;line-height:1.25;font-family:Chalet;-inkscape-font-specification:'Chalet, weight=551';font-variant-ligatures:normal;font-variant-caps:normal;font-variant-numeric:normal;font-feature-settings:normal;text-align:start;letter-spacing:0px;word-spacing:0px;writing-mode:lr-tb;text-anchor:start;fill:#ffffff;fill-opacity:1;stroke:none;stroke-width:0.71873575"
     id="flowRoot7195">
    <path
       d="m 229.60008,265.1266 v -5.04 c -1.76,0.04 -3.36,0.28 -4.8,0.68 -1.44,0.44 -2.64,1.12 -3.64,2 -1.44,1.28 -2.52,2.8 -3.16,4.56 -0.64,1.8 -0.96,4.04 -0.96,6.68 0,1.12 -0.08,2.08 -0.16,2.88 -0.12,0.8 -0.28,1.52 -0.44,2.08 -0.2,0.56 -0.44,1.04 -0.72,1.44 -0.28,0.4 -0.56,0.72 -0.88,0.96 -0.72,0.6 -1.56,1 -2.56,1.2 -1,0.24 -1.96,0.32 -2.88,0.32 v 5 c 1.84,0.04 3.48,-0.16 4.92,-0.56 1.44,-0.4 2.72,-1.08 3.84,-2 0.88,-0.72 1.64,-1.56 2.2,-2.48 0.56,-0.92 0.96,-1.88 1.24,-2.84 0.28,-0.96 0.48,-1.96 0.56,-3 0.08,-1.04 0.16,-2.04 0.16,-3 0,-1.04 0.04,-2 0.16,-2.8 0.08,-0.8 0.24,-1.48 0.44,-2.04 0.2,-0.56 0.44,-1.08 0.72,-1.48 0.28,-0.4 0.6,-0.76 0.96,-1.08 0.48,-0.44 1.16,-0.8 2.04,-1.08 0.88,-0.24 1.84,-0.4 2.96,-0.4 z"
       style="fill:#ffffff;fill-opacity:1;stroke-width:0.71873575"
       id="path7206"
       inkscape:connector-curvature="0" />
    <path
       d="m 245.66133,273.2466 -9.68,4.08 c 0,-0.88 0.16,-1.68 0.48,-2.4 0.32,-0.72 0.72,-1.32 1.2,-1.84 0.48,-0.52 1.08,-0.92 1.76,-1.24 0.64,-0.28 1.36,-0.44 2.16,-0.44 0.84,0 1.6,0.16 2.32,0.48 0.68,0.32 1.28,0.8 1.76,1.36 z m 5.92,8.08 h -5.64 c -0.48,0.84 -1.08,1.44 -1.88,1.84 -0.8,0.4 -1.64,0.56 -2.48,0.56 -0.92,0 -1.76,-0.16 -2.48,-0.56 -0.76,-0.4 -1.4,-0.92 -1.92,-1.64 l 14.56,-6.12 c -0.24,-1.36 -0.68,-2.6 -1.32,-3.68 -0.64,-1.04 -1.4,-1.96 -2.28,-2.68 -0.88,-0.72 -1.88,-1.28 -3,-1.68 -1.12,-0.4 -2.32,-0.6 -3.52,-0.6 -1.48,0 -2.84,0.32 -4.12,0.88 -1.28,0.56 -2.4,1.36 -3.36,2.32 -0.96,0.96 -1.72,2.12 -2.28,3.44 -0.56,1.32 -0.8,2.72 -0.8,4.2 0,1.52 0.24,2.92 0.8,4.2 0.56,1.32 1.32,2.48 2.28,3.44 0.96,0.96 2.08,1.72 3.36,2.28 1.28,0.56 2.64,0.84 4.12,0.84 2.56,0 4.72,-0.64 6.44,-1.92 1.72,-1.28 2.88,-3 3.52,-5.12 z"
       style="fill:#ffffff;fill-opacity:1;stroke-width:0.71873575"
       id="path7208"
       inkscape:connector-curvature="0" />
    <path
       d="m 269.90633,277.5666 c 0.88,-0.76 1.56,-1.68 2.08,-2.8 0.48,-1.08 0.76,-2.32 0.76,-3.76 v -3.72 h -5.28 v 4 c 0,1.2 -0.36,2.12 -1,2.84 -0.64,0.72 -1.48,1.08 -2.52,1.08 -1.04,0 -1.88,-0.36 -2.52,-1.08 -0.64,-0.72 -0.96,-1.64 -0.96,-2.84 v -4 h -5.28 v 3.72 c 0,1.44 0.2,2.72 0.68,3.8 0.44,1.12 1.08,2.04 1.96,2.76 -0.88,0.76 -1.52,1.68 -1.96,2.76 -0.48,1.12 -0.68,2.36 -0.68,3.8 v 3.76 h 5.28 v -4.04 c 0,-1.16 0.32,-2.12 0.96,-2.84 0.64,-0.72 1.48,-1.08 2.52,-1.08 1.04,0 1.88,0.36 2.52,1.08 0.64,0.72 1,1.68 1,2.84 v 4.04 h 5.28 v -3.76 c 0,-1.36 -0.28,-2.6 -0.76,-3.72 -0.52,-1.12 -1.2,-2.04 -2.08,-2.84 z"
       style="fill:#ffffff;fill-opacity:1;stroke-width:0.71873575"
       id="path7210"
       inkscape:connector-curvature="0" />
    <path
       d="m 298.8432,283.5266 c -0.72,0 -1.36,-0.12 -2,-0.4 -0.64,-0.28 -1.16,-0.68 -1.6,-1.2 -0.48,-0.52 -0.84,-1.16 -1.08,-1.88 -0.28,-0.72 -0.4,-1.52 -0.4,-2.4 0,-0.88 0.12,-1.68 0.4,-2.44 0.24,-0.72 0.6,-1.36 1.08,-1.92 0.44,-0.52 0.96,-0.92 1.6,-1.24 0.64,-0.28 1.28,-0.44 2,-0.44 0.68,0 1.32,0.16 1.96,0.44 0.6,0.32 1.12,0.72 1.6,1.24 0.48,0.56 0.84,1.2 1.12,1.92 0.24,0.76 0.4,1.56 0.4,2.44 0,0.88 -0.16,1.68 -0.4,2.4 -0.28,0.72 -0.64,1.36 -1.12,1.88 -0.48,0.52 -1,0.92 -1.6,1.2 -0.64,0.28 -1.28,0.4 -1.96,0.4 z m 0,-16.76 c -1.44,0 -2.8,0.28 -4.04,0.84 -1.28,0.56 -2.36,1.32 -3.28,2.28 -0.96,0.96 -1.68,2.12 -2.24,3.44 -0.56,1.32 -0.8,2.76 -0.8,4.28 0,1.56 0.24,3 0.8,4.28 0.56,1.32 1.28,2.44 2.24,3.4 0.92,0.96 2,1.72 3.28,2.28 1.24,0.56 2.6,0.8 4.04,0.8 1.44,0 2.76,-0.24 4.04,-0.8 1.24,-0.56 2.32,-1.32 3.28,-2.28 0.96,-0.96 1.68,-2.08 2.24,-3.4 0.56,-1.28 0.84,-2.72 0.84,-4.28 0,-1.52 -0.28,-2.96 -0.84,-4.28 -0.56,-1.32 -1.28,-2.48 -2.24,-3.44 -0.96,-0.96 -2.04,-1.72 -3.28,-2.28 -1.28,-0.56 -2.6,-0.84 -4.04,-0.84 z"
       style="fill:#ffffff;fill-opacity:1;stroke-width:0.71873575"
       id="path7212"
       inkscape:connector-curvature="0" />
    <path
       d="m 312.6482,275.9666 v 11.92 h 5.28 v -12.04 c 0,-1.16 0.36,-2.12 1.12,-2.84 0.72,-0.72 1.68,-1.08 2.88,-1.08 0.88,0 1.56,0.16 2.08,0.44 0.48,0.32 0.88,0.68 1.16,1.08 0.24,0.44 0.44,0.88 0.52,1.32 0.08,0.44 0.12,0.8 0.12,1.08 v 12.04 h 5.28 v -11.92 c 0,-1.36 -0.24,-2.6 -0.64,-3.72 -0.4,-1.12 -1,-2.08 -1.8,-2.88 -0.8,-0.8 -1.76,-1.44 -2.88,-1.92 -1.12,-0.44 -2.4,-0.68 -3.84,-0.68 -1.44,0 -2.72,0.24 -3.84,0.72 -1.12,0.48 -2.12,1.12 -2.92,1.92 -0.8,0.84 -1.44,1.8 -1.88,2.92 -0.44,1.12 -0.64,2.36 -0.64,3.64 z"
       style="fill:#ffffff;fill-opacity:1;stroke-width:0.71873575"
       id="path7214"
       inkscape:connector-curvature="0" />
    <path
       d="m 357.00258,287.8466 v -4.8 c -1.36,0.08 -2.36,-0.16 -3,-0.76 -0.64,-0.56 -0.96,-1.6 -0.96,-3.04 v -7.28 h 3.72 v -4.68 h -3.72 v -5.24 h -5.28 v 17.16 c 0,1.44 0.2,2.72 0.6,3.84 0.4,1.12 0.96,2.08 1.76,2.84 0.76,0.8 1.72,1.36 2.88,1.68 1.12,0.36 2.48,0.44 4,0.28 z"
       style="fill:#ffffff;fill-opacity:1;stroke-width:0.71873575"
       id="path7216"
       inkscape:connector-curvature="0" />
    <path
       d="m 379.21695,287.8866 v -12.04 c 0,-1.36 -0.2,-2.6 -0.6,-3.72 -0.4,-1.12 -1,-2.04 -1.72,-2.84 -0.72,-0.8 -1.6,-1.4 -2.64,-1.84 -1.04,-0.44 -2.2,-0.68 -3.44,-0.68 -0.92,0 -1.76,0.16 -2.56,0.44 -0.8,0.28 -1.52,0.68 -2.16,1.16 v -10.24 h -5.32 v 29.76 h 5.32 v -12.04 c 0,-1.16 0.36,-2.12 1.08,-2.84 0.72,-0.72 1.72,-1.08 2.92,-1.08 0.84,0 1.52,0.16 2.04,0.44 0.48,0.32 0.88,0.68 1.16,1.08 0.24,0.4 0.44,0.84 0.52,1.28 0.08,0.48 0.12,0.84 0.12,1.12 v 12.04 z"
       style="fill:#ffffff;fill-opacity:1;stroke-width:0.71873575"
       id="path7218"
       inkscape:connector-curvature="0" />
    <path
       d="m 397.22383,273.2466 -9.68,4.08 c 0,-0.88 0.16,-1.68 0.48,-2.4 0.32,-0.72 0.72,-1.32 1.2,-1.84 0.48,-0.52 1.08,-0.92 1.76,-1.24 0.64,-0.28 1.36,-0.44 2.16,-0.44 0.84,0 1.6,0.16 2.32,0.48 0.68,0.32 1.28,0.8 1.76,1.36 z m 5.92,8.08 h -5.64 c -0.48,0.84 -1.08,1.44 -1.88,1.84 -0.8,0.4 -1.64,0.56 -2.48,0.56 -0.92,0 -1.76,-0.16 -2.48,-0.56 -0.76,-0.4 -1.4,-0.92 -1.92,-1.64 l 14.56,-6.12 c -0.24,-1.36 -0.68,-2.6 -1.32,-3.68 -0.64,-1.04 -1.4,-1.96 -2.28,-2.68 -0.88,-0.72 -1.88,-1.28 -3,-1.68 -1.12,-0.4 -2.32,-0.6 -3.52,-0.6 -1.48,0 -2.84,0.32 -4.12,0.88 -1.28,0.56 -2.4,1.36 -3.36,2.32 -0.96,0.96 -1.72,2.12 -2.28,3.44 -0.56,1.32 -0.8,2.72 -0.8,4.2 0,1.52 0.24,2.92 0.8,4.2 0.56,1.32 1.32,2.48 2.28,3.44 0.96,0.96 2.08,1.72 3.36,2.28 1.28,0.56 2.64,0.84 4.12,0.84 2.56,0 4.72,-0.64 6.44,-1.92 1.72,-1.28 2.88,-3 3.52,-5.12 z"
       style="fill:#ffffff;fill-opacity:1;stroke-width:0.71873575"
       id="path7220"
       inkscape:connector-curvature="0" />
    <path
       d="m 433.45258,279.4866 c 0,0.72 -0.12,1.28 -0.36,1.72 -0.24,0.44 -0.52,0.8 -0.88,1.04 -0.4,0.28 -0.84,0.48 -1.32,0.56 -0.48,0.12 -1,0.16 -1.48,0.16 h -4.76 v -7.08 h 4.68 c 1.32,0 2.32,0.32 3.04,0.92 0.72,0.64 1.08,1.52 1.08,2.68 z m -8.8,-8.52 v -2.56 c 0,-1.04 0.36,-1.96 1.08,-2.68 0.72,-0.72 1.64,-1.12 2.76,-1.12 0.48,0 0.96,0.08 1.44,0.2 0.44,0.12 0.84,0.32 1.2,0.56 0.32,0.28 0.6,0.64 0.84,1.04 0.2,0.4 0.32,0.92 0.32,1.48 0,0.76 -0.16,1.36 -0.48,1.76 -0.32,0.4 -0.64,0.72 -1.04,0.92 -0.4,0.2 -0.76,0.32 -1.08,0.36 -0.36,0.04 -0.56,0.04 -0.64,0.04 z m 14.24,8.76 c 0,-1.6 -0.32,-2.96 -0.96,-4.08 -0.64,-1.12 -1.56,-1.96 -2.76,-2.6 0.72,-0.6 1.28,-1.36 1.76,-2.24 0.44,-0.88 0.68,-1.96 0.68,-3.16 0,-1.2 -0.24,-2.28 -0.68,-3.32 -0.48,-1 -1.12,-1.88 -1.92,-2.6 -0.8,-0.72 -1.76,-1.28 -2.88,-1.68 -1.12,-0.4 -2.36,-0.6 -3.64,-0.6 -1.28,0 -2.44,0.24 -3.56,0.68 -1.12,0.48 -2.12,1.12 -2.96,1.96 -0.88,0.84 -1.52,1.8 -1.96,2.88 -0.44,1.12 -0.64,2.24 -0.64,3.44 v 19.48 h 10.84 c 1.32,0 2.52,-0.16 3.6,-0.56 1.08,-0.4 2,-0.92 2.76,-1.64 0.72,-0.72 1.32,-1.56 1.72,-2.56 0.4,-1 0.6,-2.12 0.6,-3.4 z"
       style="fill:#ffffff;fill-opacity:1;stroke-width:0.71873575"
       id="path7222"
       inkscape:connector-curvature="0" />
    <path
       d="m 455.8957,273.2466 -9.68,4.08 c 0,-0.88 0.16,-1.68 0.48,-2.4 0.32,-0.72 0.72,-1.32 1.2,-1.84 0.48,-0.52 1.08,-0.92 1.76,-1.24 0.64,-0.28 1.36,-0.44 2.16,-0.44 0.84,0 1.6,0.16 2.32,0.48 0.68,0.32 1.28,0.8 1.76,1.36 z m 5.92,8.08 h -5.64 c -0.48,0.84 -1.08,1.44 -1.88,1.84 -0.8,0.4 -1.64,0.56 -2.48,0.56 -0.92,0 -1.76,-0.16 -2.48,-0.56 -0.76,-0.4 -1.4,-0.92 -1.92,-1.64 l 14.56,-6.12 c -0.24,-1.36 -0.68,-2.6 -1.32,-3.68 -0.64,-1.04 -1.4,-1.96 -2.28,-2.68 -0.88,-0.72 -1.88,-1.28 -3,-1.68 -1.12,-0.4 -2.32,-0.6 -3.52,-0.6 -1.48,0 -2.84,0.32 -4.12,0.88 -1.28,0.56 -2.4,1.36 -3.36,2.32 -0.96,0.96 -1.72,2.12 -2.28,3.44 -0.56,1.32 -0.8,2.72 -0.8,4.2 0,1.52 0.24,2.92 0.8,4.2 0.56,1.32 1.32,2.48 2.28,3.44 0.96,0.96 2.08,1.72 3.36,2.28 1.28,0.56 2.64,0.84 4.12,0.84 2.56,0 4.72,-0.64 6.44,-1.92 1.72,-1.28 2.88,-3 3.52,-5.12 z"
       style="fill:#ffffff;fill-opacity:1;stroke-width:0.71873575"
       id="path7224"
       inkscape:connector-curvature="0" />
    <path
       d="m 480.3007,277.6466 c 0,0.8 -0.16,1.56 -0.44,2.28 -0.28,0.72 -0.64,1.32 -1.12,1.84 -0.48,0.52 -1.04,0.92 -1.68,1.24 -0.64,0.32 -1.32,0.44 -2.04,0.44 -0.72,0 -1.4,-0.12 -2.04,-0.44 -0.64,-0.28 -1.2,-0.68 -1.68,-1.2 -0.48,-0.52 -0.88,-1.12 -1.16,-1.84 -0.28,-0.72 -0.4,-1.48 -0.4,-2.32 0,-0.84 0.12,-1.64 0.4,-2.36 0.28,-0.72 0.68,-1.32 1.16,-1.88 0.48,-0.52 1.04,-0.92 1.68,-1.24 0.64,-0.28 1.32,-0.44 2.04,-0.44 0.72,0 1.4,0.16 2.04,0.48 0.64,0.32 1.2,0.72 1.68,1.24 0.48,0.56 0.84,1.16 1.12,1.88 0.28,0.72 0.44,1.52 0.44,2.32 z m 5.28,10.24 v -10.28 c 0,-1.48 -0.28,-2.88 -0.8,-4.2 -0.52,-1.32 -1.24,-2.48 -2.16,-3.44 -0.96,-0.96 -2.08,-1.76 -3.36,-2.32 -1.28,-0.56 -2.72,-0.88 -4.24,-0.88 -1.6,0 -3.04,0.32 -4.32,0.88 -1.28,0.56 -2.4,1.36 -3.32,2.32 -0.96,0.96 -1.68,2.12 -2.2,3.44 -0.52,1.32 -0.76,2.72 -0.76,4.2 0,1.52 0.24,2.92 0.76,4.2 0.52,1.28 1.24,2.44 2.12,3.4 0.88,0.96 1.96,1.72 3.16,2.28 1.2,0.56 2.48,0.84 3.84,0.84 1.24,0 2.4,-0.2 3.48,-0.64 1.08,-0.44 2,-1.08 2.8,-1.96 v 2.16 z"
       style="fill:#ffffff;fill-opacity:1;stroke-width:0.71873575"
       id="path7226"
       inkscape:connector-curvature="0" />
    <path
       d="m 499.19008,287.8466 v -4.8 c -1.36,0.08 -2.36,-0.16 -3,-0.76 -0.64,-0.56 -0.96,-1.6 -0.96,-3.04 v -7.28 h 3.72 v -4.68 h -3.72 v -5.24 h -5.28 v 17.16 c 0,1.44 0.2,2.72 0.6,3.84 0.4,1.12 0.96,2.08 1.76,2.84 0.76,0.8 1.72,1.36 2.88,1.68 1.12,0.36 2.48,0.44 4,0.28 z"
       style="fill:#ffffff;fill-opacity:1;stroke-width:0.71873575"
       id="path7228"
       inkscape:connector-curvature="0" />
  </g>
</svg>
